<svg width="74" height="44" viewBox="0 0 74 44" fill="none" xmlns="http://www.w3.org/2000/svg">
<rect width="74" height="44" fill="white"/>
<g clip-path="url(#clip0_198_9811)">
<path d="M35.9193 13.25H39.9298C39.9906 13.25 40.0223 13.3209 39.9826 13.3602L33.198 21.9793C33.1769 22.0003 33.1769 22.0423 33.198 22.0607L39.9826 30.6797C40.0223 30.7296 39.9826 30.7926 39.9298 30.7926H35.9193C35.9008 30.7926 35.8797 30.7821 35.8691 30.7611L31.132 24.6117C31.1109 24.5829 31.0607 24.5829 31.029 24.6117L26.2919 30.7611C26.2814 30.7821 26.2629 30.7926 26.2417 30.7926H22.2312C22.1784 30.7926 22.1519 30.7191 22.1784 30.6797L28.963 22.0607C28.9814 22.0423 28.9814 22.0003 28.963 21.9793L22.1784 13.3602C22.1414 13.3104 22.1784 13.25 22.2312 13.25H26.2417C26.2629 13.25 26.2814 13.2605 26.2919 13.2815L31.029 19.4282C31.0501 19.4597 31.1003 19.4597 31.132 19.4282L35.8691 13.2815C35.8797 13.2605 35.9008 13.25 35.9193 13.25Z" fill="#121417"/>
<path d="M20.6062 30.408L23.2455 27.1745C23.264 27.1535 23.2746 27.1246 23.2746 27.1036L21.2508 13.3535C21.2403 13.3037 21.198 13.2617 21.1478 13.2617H18.4768C18.4345 13.2617 18.3949 13.2827 18.3843 13.322L12.0409 26.1693C12.0013 26.2507 11.8877 26.2507 11.8586 26.1693L5.45181 13.322C5.43067 13.2827 5.40161 13.2617 5.36198 13.2617H2.66188C2.60904 13.2617 2.56677 13.3037 2.5562 13.3535L0.00141141 30.6809C-0.0091565 30.7413 0.0410411 30.8017 0.104448 30.8017H3.22198C3.27482 30.8017 3.32766 30.7623 3.32766 30.7124L4.86793 19.4504C4.8785 19.348 5.02381 19.3297 5.06608 19.4215L10.7199 30.7518C10.741 30.7938 10.7728 30.8122 10.8124 30.8122H13.0237C13.0633 30.8122 13.1056 30.7938 13.1162 30.7518L18.7013 19.4819C18.741 19.39 18.8863 19.411 18.8968 19.5108L20.4186 30.3555C20.4292 30.4473 20.5533 30.4762 20.6062 30.408Z" fill="#121417"/>
</g>
<path d="M51.182 26V16.662H49.712V20.176C49.166 19.462 48.382 19.07 47.542 19.07C45.792 19.07 44.532 20.442 44.532 22.626C44.532 24.852 45.806 26.168 47.542 26.168C48.41 26.168 49.194 25.748 49.712 25.076V26H51.182ZM47.962 24.866C46.8 24.866 46.058 23.928 46.058 22.626C46.058 21.31 46.8 20.372 47.962 20.372C48.662 20.372 49.376 20.778 49.712 21.282V23.97C49.376 24.474 48.662 24.866 47.962 24.866ZM56.1388 26.168C58.3088 26.168 59.6248 24.558 59.6248 22.612C59.6248 20.68 58.3088 19.07 56.1388 19.07C53.9968 19.07 52.6668 20.68 52.6668 22.612C52.6668 24.558 53.9968 26.168 56.1388 26.168ZM56.1388 24.866C54.8928 24.866 54.1928 23.816 54.1928 22.612C54.1928 21.422 54.8928 20.372 56.1388 20.372C57.3988 20.372 58.0988 21.422 58.0988 22.612C58.0988 23.816 57.3988 24.866 56.1388 24.866ZM64.1922 26.168C65.5082 26.168 66.3062 25.608 66.7822 24.964L65.8162 24.068C65.4382 24.586 64.9202 24.866 64.2622 24.866C63.0302 24.866 62.2182 23.928 62.2182 22.612C62.2182 21.296 63.0302 20.372 64.2622 20.372C64.9202 20.372 65.4382 20.638 65.8162 21.17L66.7822 20.274C66.3062 19.63 65.5082 19.07 64.1922 19.07C62.1342 19.07 60.6922 20.568 60.6922 22.612C60.6922 24.67 62.1342 26.168 64.1922 26.168ZM70.3811 26.168C72.2011 26.168 73.1951 25.258 73.1951 24.068C73.1951 21.38 69.1071 22.276 69.1071 21.072C69.1071 20.596 69.5971 20.246 70.3671 20.246C71.2071 20.246 71.9631 20.596 72.3691 21.058L72.9851 20.022C72.3691 19.476 71.5011 19.07 70.3531 19.07C68.6451 19.07 67.6931 20.022 67.6931 21.128C67.6931 23.718 71.7811 22.766 71.7811 24.096C71.7811 24.628 71.3331 25.006 70.4511 25.006C69.5691 25.006 68.6311 24.544 68.1551 24.054L67.4831 25.118C68.1831 25.804 69.2331 26.168 70.3811 26.168Z" fill="#121417"/>
<defs>
<clipPath id="clip0_198_9811">
<rect width="40" height="40" fill="white" transform="translate(0 2)"/>
</clipPath>
</defs>
</svg>
