<svg width="40" height="40" viewBox="0 0 40 40" fill="none" xmlns="http://www.w3.org/2000/svg">
<g clip-path="url(#clip0_224_8597)">
<path d="M11.25 3.125H13.75M15.2749 21.725L19.3749 23.4812L21.8749 24.5562L25.8749 26.2687M15.2749 18.275L19.3749 16.5187L21.8749 15.4437L25.8749 13.7312M11.25 18.125V21.875M13.125 20H9.375M3.125 0.625H19.375C20.7557 0.625 21.875 1.74429 21.875 3.125V36.875C21.875 38.2557 20.7557 39.375 19.375 39.375H3.125C1.74429 39.375 0.625 38.2557 0.625 36.875V3.125C0.625 1.74429 1.74429 0.625 3.125 0.625ZM3.125 5.625H19.375V33.125H3.125V5.625ZM12.5 36.25C12.5 36.9404 11.9404 37.5 11.25 37.5C10.5596 37.5 10 36.9404 10 36.25C10 35.5596 10.5596 35 11.25 35C11.9404 35 12.5 35.5596 12.5 36.25ZM15.625 20C15.625 22.4162 13.6662 24.375 11.25 24.375C8.83375 24.375 6.875 22.4162 6.875 20C6.875 17.5838 8.83375 15.625 11.25 15.625C13.6662 15.625 15.625 17.5838 15.625 20ZM31.875 12.5C31.875 14.2259 30.4759 15.625 28.75 15.625C27.0241 15.625 25.625 14.2259 25.625 12.5C25.625 10.7741 27.0241 9.375 28.75 9.375C30.4759 9.375 31.875 10.7741 31.875 12.5ZM31.875 27.5C31.875 29.2259 30.4759 30.625 28.75 30.625C27.0241 30.625 25.625 29.2259 25.625 27.5C25.625 25.7741 27.0241 24.375 28.75 24.375C30.4759 24.375 31.875 25.7741 31.875 27.5Z" stroke="url(#paint0_linear_224_8597)" stroke-width="1.5" stroke-linecap="round" stroke-linejoin="round"/>
</g>
<defs>
<linearGradient id="paint0_linear_224_8597" x1="16.25" y1="0.625" x2="16.25" y2="39.375" gradientUnits="userSpaceOnUse">
<stop stop-color="#6A41BD"/>
<stop offset="0.501103" stop-color="#2F73DA"/>
<stop offset="1" stop-color="#6BCDDB"/>
</linearGradient>
<clipPath id="clip0_224_8597">
<rect width="40" height="40" fill="white"/>
</clipPath>
</defs>
</svg>
